<svg xmlns="http://www.w3.org/2000/svg" viewBox="0 0 220.56 59.38"><defs><style>.cls-1{fill:#fff;}</style></defs><title>Asset 1</title><g id="Layer_2" data-name="Layer 2"><g id="nav_elements" data-name="nav elements"><path class="cls-1" d="M0,56.11,6.81,2.78A1.57,1.57,0,0,1,8.4,1.57H21.91a1.59,1.59,0,0,1,1.5.94l11.08,24c.52,1.25,3.56,1.25,4.08,0l11-24a1.59,1.59,0,0,1,1.5-.94H64.59a1.57,1.57,0,0,1,1.58,1.21L73,56.11a1.5,1.5,0,0,1-1.58,1.7H58.6A1.57,1.57,0,0,1,57,56.57L52.72,32.1a1.65,1.65,0,0,0-3.07-.33L39.74,56.91a1.62,1.62,0,0,1-1.48.9H34a1.61,1.61,0,0,1-1.5-.93L23.31,32a1.65,1.65,0,0,0-3.08.31L16,56.57a1.56,1.56,0,0,1-1.58,1.24H1.61A1.51,1.51,0,0,1,0,56.11Z"/><path class="cls-1" d="M113,14H97a1.54,1.54,0,0,0-1.61,1.45v6.49A1.54,1.54,0,0,0,97,23.35h14.91a1.53,1.53,0,0,1,1.6,1.45v9.48a1.53,1.53,0,0,1-1.6,1.45H97a1.54,1.54,0,0,0-1.61,1.45V44A1.54,1.54,0,0,0,97,45.43h16a1.54,1.54,0,0,1,1.61,1.45v9.48A1.54,1.54,0,0,1,113,57.81H80.82a1.54,1.54,0,0,1-1.61-1.45V3a1.54,1.54,0,0,1,1.61-1.45H113A1.54,1.54,0,0,1,114.56,3V12.5A1.54,1.54,0,0,1,113,14Z"/><path class="cls-1" d="M155.26,14.42a1.69,1.69,0,0,1-2.33.54,19.15,19.15,0,0,0-3.81-1.87,15.33,15.33,0,0,0-5.11-.93,8.93,8.93,0,0,0-5.1,1.34,4.09,4.09,0,0,0-2,3.51,3.31,3.31,0,0,0,1,2.46,8.72,8.72,0,0,0,2.59,1.68,24.05,24.05,0,0,0,3.63,1.23c1.34.35,2.67.72,4,1.12q7.91,2.38,11.58,6.37a14.81,14.81,0,0,1,3.66,10.41,18.58,18.58,0,0,1-1.6,7.83,16.49,16.49,0,0,1-4.7,6A22.49,22.49,0,0,1,149.49,58a34.56,34.56,0,0,1-10.17,1.38,40.1,40.1,0,0,1-20.6-5.59,1.38,1.38,0,0,1-.55-1.91l5.3-9.05a1.72,1.72,0,0,1,2.44-.44,26.41,26.41,0,0,0,5.66,3.19,18.85,18.85,0,0,0,7,1.41c2.63,0,4.6-.54,5.89-1.64a4.79,4.79,0,0,0,1.93-3.73,4.64,4.64,0,0,0-.49-2.2,4.92,4.92,0,0,0-1.65-1.71,13.41,13.41,0,0,0-3-1.46c-1.23-.45-2.73-.94-4.49-1.49-2.08-.6-4.13-1.26-6.13-2a19.64,19.64,0,0,1-5.36-2.87,13.64,13.64,0,0,1-3.79-4.51A14.7,14.7,0,0,1,120,18.5a18.34,18.34,0,0,1,1.52-7.57,17,17,0,0,1,4.29-5.82,19.54,19.54,0,0,1,6.75-3.77A28.16,28.16,0,0,1,141.54,0a43,43,0,0,1,9.64,1.16,45.25,45.25,0,0,1,8.17,2.71,1.4,1.4,0,0,1,.74,2Z"/><path class="cls-1" d="M186.44,23.27h15.29a1.54,1.54,0,0,0,1.61-1.45V3a1.53,1.53,0,0,1,1.6-1.45h12.41A1.53,1.53,0,0,1,219,3l1.61,53.34A1.54,1.54,0,0,1,219,57.81h-14a1.53,1.53,0,0,1-1.6-1.45V36.06a1.54,1.54,0,0,0-1.61-1.45H186.44a1.53,1.53,0,0,0-1.6,1.45v20.3a1.54,1.54,0,0,1-1.61,1.45h-14a1.54,1.54,0,0,1-1.61-1.45L169.23,3a1.53,1.53,0,0,1,1.6-1.45h12.4A1.54,1.54,0,0,1,184.84,3v18.8A1.53,1.53,0,0,0,186.44,23.27Z"/></g></g></svg>