<svg xmlns="http://www.w3.org/2000/svg" viewBox="0 0 233 61.52"><defs><style>.cls-1{fill:#111;}</style></defs><title>Asset 4</title><g id="Layer_2" data-name="Layer 2"><g id="Layer_1-2" data-name="Layer 1"><path class="cls-1" d="M0,58.14l7-55.26A1.63,1.63,0,0,1,8.7,1.62h14a1.68,1.68,0,0,1,1.56,1L35.73,27.42c.55,1.3,3.69,1.3,4.23,0L51.36,2.6a1.66,1.66,0,0,1,1.56-1h14a1.63,1.63,0,0,1,1.64,1.26l7,55.26A1.55,1.55,0,0,1,74,59.89H60.71a1.61,1.61,0,0,1-1.64-1.28L54.62,33.26a1.71,1.71,0,0,0-3.18-.35L41.18,59a1.67,1.67,0,0,1-1.54.93H35.23a1.68,1.68,0,0,1-1.55-1L24.15,33.13a1.71,1.71,0,0,0-3.19.33L16.55,58.61a1.61,1.61,0,0,1-1.64,1.28H1.66A1.55,1.55,0,0,1,0,58.14Z"/><path class="cls-1" d="M117.7,14.45H101.14A1.6,1.6,0,0,0,99.47,16v6.72a1.59,1.59,0,0,0,1.67,1.51h15.45a1.58,1.58,0,0,1,1.66,1.51v9.81A1.59,1.59,0,0,1,116.59,37H101.14a1.59,1.59,0,0,0-1.67,1.5v7a1.6,1.6,0,0,0,1.67,1.51H117.7a1.58,1.58,0,0,1,1.66,1.5v9.82a1.58,1.58,0,0,1-1.66,1.5H84.41a1.59,1.59,0,0,1-1.67-1.5V3.13a1.6,1.6,0,0,1,1.67-1.51H117.7a1.59,1.59,0,0,1,1.66,1.51V13A1.58,1.58,0,0,1,117.7,14.45Z"/><path class="cls-1" d="M163.78,14.94a1.75,1.75,0,0,1-2.42.56,20.52,20.52,0,0,0-3.94-1.94,15.94,15.94,0,0,0-5.29-1,9.24,9.24,0,0,0-5.3,1.39,4.24,4.24,0,0,0-2.05,3.63,3.44,3.44,0,0,0,1,2.55,8.93,8.93,0,0,0,2.69,1.74,24.51,24.51,0,0,0,3.75,1.28c1.4.36,2.78.74,4.14,1.15q8.21,2.47,12,6.61a15.32,15.32,0,0,1,3.79,10.78,19.26,19.26,0,0,1-1.66,8.12,17.06,17.06,0,0,1-4.87,6.22,23,23,0,0,1-7.85,4,35.93,35.93,0,0,1-10.54,1.43,41.49,41.49,0,0,1-21.34-5.79,1.43,1.43,0,0,1-.57-2l5.5-9.37a1.76,1.76,0,0,1,2.51-.46,28.2,28.2,0,0,0,5.88,3.3,19.36,19.36,0,0,0,7.25,1.47c2.73,0,4.77-.57,6.1-1.7a5,5,0,0,0,2-3.87,4.85,4.85,0,0,0-.51-2.28,5.09,5.09,0,0,0-1.71-1.77,14.1,14.1,0,0,0-3.11-1.51c-1.28-.46-2.84-1-4.66-1.55-2.16-.61-4.28-1.3-6.36-2a20.57,20.57,0,0,1-5.54-3,14,14,0,0,1-3.93-4.68,15.12,15.12,0,0,1-1.49-7.14,18.85,18.85,0,0,1,1.58-7.85,17.55,17.55,0,0,1,4.43-6,20.36,20.36,0,0,1,7-3.9A28.91,28.91,0,0,1,149.56,0a44.46,44.46,0,0,1,10,1.2A47,47,0,0,1,168,4a1.45,1.45,0,0,1,.76,2.05Z"/><path class="cls-1" d="M197.66,24.11H213.5a1.58,1.58,0,0,0,1.66-1.5V3.13a1.6,1.6,0,0,1,1.66-1.51h12.85a1.6,1.6,0,0,1,1.67,1.51L233,58.39a1.58,1.58,0,0,1-1.66,1.5H216.82a1.59,1.59,0,0,1-1.66-1.5v-21a1.58,1.58,0,0,0-1.66-1.51H197.66A1.59,1.59,0,0,0,196,37.37v21a1.58,1.58,0,0,1-1.66,1.5H179.82a1.58,1.58,0,0,1-1.66-1.5l1.66-55.26a1.59,1.59,0,0,1,1.66-1.51h12.85A1.59,1.59,0,0,1,196,3.13V22.61A1.59,1.59,0,0,0,197.66,24.11Z"/></g></g></svg>